<?xml version="1.0" encoding="utf-8"?>
<!-- Generator: Adobe Illustrator 18.1.1, SVG Export Plug-In . SVG Version: 6.00 Build 0)  -->
<svg version="1.1" id="Layer_1" xmlns="http://www.w3.org/2000/svg" xmlns:xlink="http://www.w3.org/1999/xlink" x="0px" y="0px"
	 width="460px" height="460px" viewBox="-249 51 460 460" enable-background="new -249 51 460 460" xml:space="preserve">
<g>
	<g>
		<path fill="#353330" d="M-19,508c-125.1,0-227-102-227-227S-144.1,54-19,54s227,101.9,227,226.9C207.8,406,106.1,508-19,508z
			 M-19,67.2c-117.9,0-213.8,95.9-213.8,213.7S-136.9,494.8-19,494.8S194.7,399,194.7,281S98.7,67.2-19,67.2z"/>
	</g>
	<g>
		<path fill="#353330" d="M-19,508c-125.1,0-227-102-227-227S-144.1,54-19,54s227,101.9,227,226.9C207.8,406,106.1,508-19,508z
			 M-19,67.2c-117.9,0-213.8,95.9-213.8,213.7S-136.9,494.8-19,494.8S194.7,399,194.7,281S98.7,67.2-19,67.2z"/>
	</g>
</g>
<path fill="#353330" d="M2249.1,381.9c2.5,2.5,6.8,2.5,9.3,0s2.5-6.8,0-9.3L1821.3-64.6c-2.6-2.6-6.9-2.6-9.4-0.1
	c-2.5,2.5-2.5,6.8,0,9.3L2249.1,381.9z"/>
<g>
	<path fill="none" stroke="#353330" stroke-width="13" stroke-miterlimit="10" d="M36.3,371.6H-74.3c-6.6,0-12-5.4-12-12v-72.5
		c0-6.6,5.4-12,12-12H36.3c6.6,0,12,5.4,12,12v72.5C48.3,366.2,42.9,371.6,36.3,371.6z"/>
	<g>
		<circle fill="#353330" cx="-19" cy="316.6" r="13.6"/>
		<rect x="-25.5" y="316.7" fill="#353330" width="12.9" height="27"/>
	</g>
	<path fill="none" stroke="#353330" stroke-width="14" stroke-linecap="round" stroke-miterlimit="10" d="M-58,227
		c0-21.6,17.5-39,39-39s39,17.5,39,39v47.2"/>
</g>
</svg>
