<?xml version="1.0" encoding="utf-8"?>
<!-- Generator: Adobe Illustrator 18.1.1, SVG Export Plug-In . SVG Version: 6.00 Build 0)  -->
<svg version="1.1" id="Layer_1" xmlns="http://www.w3.org/2000/svg" xmlns:xlink="http://www.w3.org/1999/xlink" x="0px" y="0px"
	 width="460px" height="460px" viewBox="49 281 460 460" enable-background="new 49 281 460 460" xml:space="preserve">
<g>
	<g>
		<path fill="#353330" d="M278,737.9c-125.1,0-227-101.9-227-227S152.9,284,278,284s227,101.9,227,226.9
			C504.8,636,403.1,737.9,278,737.9z M278,297.2c-117.9,0-213.8,95.9-213.8,213.7S160.1,724.7,278,724.7s213.7-95.8,213.7-213.8
			S395.7,297.2,278,297.2z"/>
	</g>
	<g>
		<path fill="#353330" d="M278,737.9c-125.1,0-227-101.9-227-227S152.9,284,278,284s227,101.9,227,226.9
			C504.8,636,403.1,737.9,278,737.9z M278,297.2c-117.9,0-213.8,95.9-213.8,213.7S160.1,724.7,278,724.7s213.7-95.8,213.7-213.8
			S395.7,297.2,278,297.2z"/>
	</g>
	<g>
		<path fill="#353330" d="M295.8,507.5c-4-1.4-6.9-2.1-11.5-3.2V387.2c0-3.6-3-6.6-6.6-6.6s-6.6,3-6.6,6.6v31.1
			c-37.2,2.5-54.3,25.8-54.3,46.8v0.8c0,10.5,0,29.8,33.4,43c1.4,0.6,2.2,0.8,3.5,1.2c0.6,0.1,1,0.3,1.8,0.6c0.2,0,0.3,0.2,0.5,0.2
			l21.9,5.8c0.1,0,0.1,0,0.3,0c6.2,1.4,9,2.1,13.8,3.6c26.2,8.2,39,21.6,39,40.8c0,15.3-10,25.8-30.5,32.4c-3.4,1.1-5.4,4.8-4.3,8.2
			c0.9,2.9,3.5,4.7,6.3,4.7c0.6,0,1.4-0.2,2-0.3c32.8-10.4,39.8-30.1,39.8-44.9C344,529.4,317.8,514.4,295.8,507.5z M257.2,497.3
			c-0.8-0.2-1.3-0.5-2.2-0.8c-25-9.9-25-21.5-25-30.8v-0.8c0-23.7,25.3-32.1,41.2-33.6v69.6l-11.9-3.1
			C258.6,497.6,257.8,497.4,257.2,497.3z"/>
		<path fill="#353330" d="M298.2,434.3c19.3,6.8,26,21.6,26.2,22.2c1,2.5,3.5,4,6,4c0.9,0,1.6-0.2,2.5-0.5c3.3-1.3,5-5.2,3.6-8.5
			c-0.3-0.9-8.8-21-34-29.7c-3.5-1.2-7.2,0.6-8.4,4C292.9,429.4,294.8,433.1,298.2,434.3z"/>
		<path fill="#353330" d="M277.8,525.2c-3.6,0-6.6,3-6.6,6.6v64.6c-28.4-2.1-41-18-47.9-26.7c-2.2-2.9-6.4-3.3-9.3-1.1
			c-2.9,2.2-3.3,6.5-1,9.3c7.6,9.8,23.4,29.7,58.2,31.8v25.1c0,3.6,3,6.6,6.6,6.6s6.6-3,6.6-6.6V531.9
			C284.4,528.2,281.4,525.2,277.8,525.2z"/>
	</g>
</g>
</svg>
